<!DOCTYPE svg PUBLIC "-//W3C//DTD SVG 1.1//EN" "http://www.w3.org/Graphics/SVG/1.1/DTD/svg11.dtd">
<!-- Uploaded to: SVG Repo, www.svgrepo.com, Transformed by: SVG Repo Mixer Tools -->
<svg width="250px" height="250px" viewBox="0 0 48.00 48.00" xmlns="http://www.w3.org/2000/svg" fill="#ba14db" stroke="#ba14db" transform="rotate(0)" stroke-width="0.624">
<g id="SVGRepo_bgCarrier" stroke-width="0"/>
<g id="SVGRepo_tracerCarrier" stroke-linecap="round" stroke-linejoin="round" stroke="#c217cf" stroke-width="1.344">
<defs>
<style>.a{fill:none;stroke:#ffffff;stroke-linecap:round;stroke-linejoin:round;}</style>
</defs>
<path class="a" d="M20.4774,21.05c-3.5811-3.6006-9.3883-7.565-14.16-9.0554A43.8433,43.8433,0,0,0,6.041,36.0056c5.8317-1.7025,11.895-6.2159,17.9623-11.7085a84.8117,84.8117,0,0,1,17.778-12.3c2.2843,6.9606,2.2116,16.2086.2561,23.8073-4.7326.1168-11.2128-4.9682-14.9466-8.8454M16.8184,18.5862l-7.22,6.78"/>
</g>
<g id="SVGRepo_iconCarrier">
<defs>
<style>.a{fill:none;stroke:#ffffff;stroke-linecap:round;stroke-linejoin:round;}</style>
</defs>
<path class="a" d="M20.4774,21.05c-3.5811-3.6006-9.3883-7.565-14.16-9.0554A43.8433,43.8433,0,0,0,6.041,36.0056c5.8317-1.7025,11.895-6.2159,17.9623-11.7085a84.8117,84.8117,0,0,1,17.778-12.3c2.2843,6.9606,2.2116,16.2086.2561,23.8073-4.7326.1168-11.2128-4.9682-14.9466-8.8454M16.8184,18.5862l-7.22,6.78"/>
</g>
</svg>